<svg xmlns="http://www.w3.org/2000/svg" xmlns:xlink="http://www.w3.org/1999/xlink" viewBox="0 0 22 32.5" version="1.1" x="0px" y="0px"><title>Arrow, down, down arrow, downloading 2</title><desc>Created with Sketch.</desc><g stroke="none" stroke-width="1" fill="none" fill-rule="evenodd"><g transform="translate(-613.000000, -35.000000)" fill="#FFFF" fill-rule="nonzero"><g transform="translate(613.000000, 35.000000)"><path d="M11,0 C11.5128358,0 11.9355072,0.38604019 11.9932723,0.883378875 L12,1 L12,22.584 L20.2928932,14.2928932 C20.6533772,13.9324093 21.2206082,13.9046797 21.6128994,14.2097046 L21.7071068,14.2928932 C22.0675907,14.6533772 22.0953203,15.2206082 21.7902954,15.6128994 L21.7071068,15.7071068 L11.7071068,25.7071068 C11.6717127,25.7425008 11.6343256,25.774687 11.5953066,25.8036654 L11.4840621,25.8753288 L11.4840621,25.8753288 L11.371336,25.9287745 L11.371336,25.9287745 L11.265993,25.9641549 L11.265993,25.9641549 L11.1174742,25.9931658 L11.1174742,25.9931658 L11,26 L11,26 L10.9247615,25.9972121 L10.9247615,25.9972121 L10.7992742,25.9797599 L10.7992742,25.9797599 L10.6878575,25.9502619 L10.6878575,25.9502619 L10.5767785,25.9063266 L10.5767785,25.9063266 L10.4792912,25.8540045 L10.4792912,25.8540045 L10.3871006,25.7902954 L10.3871006,25.7902954 L10.2928932,25.7071068 L10.2928932,25.7071068 L0.292893219,15.7071068 C-0.0976310729,15.3165825 -0.0976310729,14.6834175 0.292893219,14.2928932 C0.65337718,13.9324093 1.22060824,13.9046797 1.61289944,14.2097046 L1.70710678,14.2928932 L10,22.584 L10,1 C10,0.44771525 10.4477153,0 11,0 Z"/></g></g></g><text x="0" y="41" fill="#000000" font-size="5px" font-weight="bold" font-family="'Helvetica Neue', Helvetica, Arial-Unicode, Arial, Sans-serif">Created by Asyifa Waskito</text><text x="0" y="46" fill="#000000" font-size="5px" font-weight="bold" font-family="'Helvetica Neue', Helvetica, Arial-Unicode, Arial, Sans-serif">from the Noun Project</text></svg>