<svg xmlns="http://www.w3.org/2000/svg" enable-background="new 0 0 130 130" viewBox="0 0 130 130" id="meter" fill="#FFFF">
  <g>
    <path d="M72.36,72.58c-1.3-1.3-2.86-2.19-4.51-2.68V18.26c0-1.66-1.34-3-3-3s-3,1.34-3,3V69.9c-1.65,0.48-3.21,1.38-4.51,2.68
		c-2.01,2.01-3.11,4.67-3.11,7.51s1.11,5.5,3.11,7.51c2.01,2.01,4.67,3.11,7.51,3.11s5.5-1.11,7.51-3.11
		C76.5,83.46,76.5,76.72,72.36,72.58z M68.12,83.36c-0.87,0.87-2.04,1.35-3.27,1.35s-2.4-0.48-3.27-1.36c-0.87-0.87-1.35-2.03-1.35-3.27
		s0.48-2.4,1.35-3.27c0.9-0.9,2.08-1.35,3.27-1.35s2.37,0.45,3.27,1.35C69.92,78.63,69.92,81.56,68.12,83.36z M54.18,23.32
		C35.33,27.86,22.16,44.58,22.16,64c0,1.66-1.34,3-3,3s-3-1.34-3-3c0-22.2,15.05-41.32,36.61-46.51c1.61-0.38,3.23,0.6,3.62,2.21
		S55.79,22.94,54.18,23.32z M105.75,47.37c1.58-0.51,3.27,0.35,3.78,1.92c0.11,0.34,0.22,0.68,0.32,1.03c0.47,1.59-0.43,3.26-2.02,3.73
		c-0.29,0.09-0.58,0.13-0.86,0.13c-1.29,0-2.48-0.84-2.87-2.14c-0.09-0.3-0.18-0.59-0.28-0.88C103.31,49.58,104.17,47.88,105.75,47.37z
		 M108.76,60c1.63-0.07,3.03,1.28,3.06,2.94c0.01,0.35,0.01,0.71,0.01,1.06c0,1.66-1.34,3-3,3s-3-1.34-3-3c0-0.31,0-0.63-0.01-0.94
		C105.79,61.41,107.11,60.04,108.76,60z M98.48,40.3c-0.94-1.37-0.59-3.23,0.77-4.17c1.37-0.94,3.23-0.59,4.17,0.77c0.2,0.29,0.4,0.58,0.59,0.88
		c0.91,1.38,0.53,3.24-0.86,4.15c-0.51,0.33-1.08,0.49-1.64,0.49c-0.98,0-1.93-0.48-2.51-1.35C98.83,40.82,98.66,40.56,98.48,40.3z
		 M79.87,25.28c-1.53-0.63-2.26-2.38-1.64-3.92c0.63-1.53,2.38-2.26,3.92-1.64c0.33,0.13,0.65,0.27,0.98,0.41c1.52,0.66,2.21,2.43,1.55,3.95
		c-0.49,1.13-1.59,1.8-2.75,1.8c-0.4,0-0.81-0.08-1.2-0.25C80.44,25.52,80.16,25.4,79.87,25.28z M89.81,27.22c1.04-1.29,2.93-1.49,4.22-0.45
		c0.28,0.22,0.55,0.45,0.82,0.68c1.27,1.07,1.43,2.96,0.36,4.23c-0.59,0.7-1.44,1.07-2.3,1.07c-0.68,0-1.37-0.23-1.93-0.71
		c-0.24-0.2-0.48-0.4-0.72-0.6C88.97,30.39,88.77,28.51,89.81,27.22z M64,0C28.71,0,0,28.71,0,64s28.71,64,64,64s64-28.71,64-64S99.29,0,64,0z
		 M64,122c-25.61,0-47.38-16.69-55.04-39.75h39.8c1.66,0,3-1.34,3-3s-1.34-3-3-3H7.31C6.46,72.3,6,68.2,6,64C6,32.02,32.02,6,64,6
		s58,26.02,58,58c0,4.2-0.46,8.3-1.31,12.25H82.63c-1.66,0-3,1.34-3,3s1.34,3,3,3h36.41C111.38,105.31,89.61,122,64,122z"></path>
  </g>
</svg>
